<svg xmlns="http://www.w3.org/2000/svg" version="1.1" xmlns:xlink="http://www.w3.org/1999/xlink" xmlns:svgjs="http://svgjs.dev/svgjs" width="2000" height="490" viewBox="0 0 2000 490"><g transform="matrix(1,0,0,1,0.23621783679254804,0.329074435763971)"><svg viewBox="0 0 257 63" data-background-color="#ffffff" preserveAspectRatio="xMidYMid meet" height="490" width="2000" xmlns="http://www.w3.org/2000/svg" xmlns:xlink="http://www.w3.org/1999/xlink"><g id="tight-bounds" transform="matrix(1,0,0,1,-0.03035399202784106,-0.04230957031251137)"><svg viewBox="0 0 257.0607079840557 63.084619140624994" height="63.084619140624994" width="257.0607079840557"><g><svg viewBox="0 0 257.0607079840557 63.084619140624994" height="63.084619140624994" width="257.0607079840557"><g><svg viewBox="0 0 257.0607079840557 63.084619140624994" height="63.084619140624994" width="257.0607079840557"><g id="textblocktransform"><svg viewBox="0 0 257.0607079840557 63.084619140624994" height="63.084619140624994" width="257.0607079840557" id="textblock"><g><svg viewBox="0 0 257.0607079840557 63.084619140624994" height="63.084619140624994" width="257.0607079840557"><g><svg><g></g><g></g></svg></g><g><svg><g><svg></svg></g><g></g></svg></g><g id="text-0"><svg viewBox="0 0 257.0607079840557 63.084619140624994" height="63.084619140624994" width="257.0607079840557"><g transform="matrix(1,0,0,1,0,13.732250976562497)"><svg width="69.6533203125" viewBox="3.66 -35.01 69.65 35.62" height="35.6201171875" data-palette-color="#0080ff"><path d="M23.54-14.01L23.73-14.01Q24.07-15.33 24.48-16.61 24.88-17.9 25.46-19.48L25.46-19.48Q25.98-20.9 26.71-22.74 27.44-24.58 28.26-26.49 29.08-28.39 29.86-30.03 30.64-31.67 31.27-32.64L31.27-32.64Q32.06-33.84 32.97-34.42 33.89-35.01 35.67-35.01L35.67-35.01 38.87-35.01Q40.14-35.01 41-34.63 41.87-34.25 42.24-32.84L42.24-32.84Q42.5-31.79 42.75-29.76 42.99-27.73 43.16-24.15 43.33-20.56 43.43-14.93 43.53-9.3 43.53-1.03L43.53-1.03Q43.53-0.59 43.24-0.29 42.94 0 42.53 0L42.53 0 36.96 0Q36.55 0 36.25-0.29 35.96-0.59 35.96-1.05L35.96-1.05Q35.96-7.5 35.96-11.99 35.96-16.48 35.94-19.43 35.91-22.39 35.88-24.13 35.84-25.88 35.77-26.83L35.77-26.83 35.62-26.83Q34.33-23.85 32.86-20.2 31.4-16.55 30-12.68 28.61-8.81 27.51-5.13L27.51-5.13Q27.2-4.03 26.72-3.6 26.25-3.17 24.56-3.17L24.56-3.17 21.75-3.17Q20.31-3.17 19.84-3.54 19.36-3.91 19.02-5.13L19.02-5.13Q18.21-7.91 17.24-11.01 16.26-14.11 15.22-17.1 14.18-20.09 13.22-22.62 12.26-25.15 11.5-26.83L11.5-26.83 11.35-26.83Q11.16-23.95 11.01-19.82 10.86-15.7 10.78-10.86 10.69-6.03 10.67-1L10.67-1Q10.67-0.56 10.38-0.28 10.08 0 9.67 0L9.67 0 4.66 0Q4.25 0 3.96-0.29 3.66-0.59 3.66-1.05L3.66-1.05Q3.69-14.06 4.19-21.83 4.69-29.59 5.27-32.23L5.27-32.23Q5.66-33.96 6.65-34.48 7.64-35.01 8.91-35.01L8.91-35.01 12.87-35.01Q14.21-35.01 14.83-34.53 15.45-34.06 16.36-32.69L16.36-32.69Q16.89-31.88 17.64-30.27 18.38-28.66 19.19-26.7 20-24.73 20.72-22.81 21.44-20.9 21.9-19.48L21.9-19.48Q22.39-18.04 22.8-16.69 23.22-15.33 23.54-14.01L23.54-14.01ZM62.74 0.61L62.74 0.61Q58.62 0.61 55.56-0.72 52.51-2.05 50.83-4.86 49.14-7.67 49.14-12.11L49.14-12.11Q49.14-18.77 52.56-22.19 55.98-25.61 61.64-25.61L61.64-25.61Q65.33-25.61 67.88-24.29 70.43-22.97 71.76-20.65 73.09-18.33 73.09-15.36L73.09-15.36Q73.09-12.45 71.6-11.3 70.11-10.16 67.26-10.16L67.26-10.16 56.78-10.16Q56.98-7.64 58.63-6.32 60.28-5 63.11-5L63.11-5Q65.35-5 66.71-5.68 68.06-6.35 68.6-6.74L68.6-6.74Q69.06-7.08 69.65-7.06L69.65-7.06Q70.11-7.06 70.98-6.87 71.85-6.69 72.7-6.2L72.7-6.2Q73.31-5.88 73.31-5.32L73.31-5.32Q73.31-5 73.19-4.42L73.19-4.42Q73.12-4.08 72.95-3.43 72.78-2.78 72.51-2.22L72.51-2.22Q72.36-1.95 72.04-1.71L72.04-1.71Q71.56-1.37 70.47-0.81 69.38-0.24 67.5 0.18 65.62 0.61 62.74 0.61ZM56.74-15.16L56.74-15.16 64.69-15.16Q65.94-15.16 65.94-16.31L65.94-16.31Q65.94-18.04 64.85-19.23 63.77-20.41 61.59-20.41L61.59-20.41Q59.23-20.41 58.12-18.9 57-17.38 56.74-15.16Z" opacity="1" transform="matrix(1,0,0,1,0,0)" fill="#0080ff" class="undefined-tk-0"></path></svg></g><g><svg xmlns="http://www.w3.org/2000/svg" xmlns:xlink="http://www.w3.org/1999/xlink" version="1.1" x="84.547216796875" y="0" viewBox="45.6 20 208.69849282724934 260" enable-background="new 0 0 300 300" xml:space="preserve" height="63.084619140624994" width="50.63717282780569" class="icon-dxe-0" data-fill-palette-color="accent" id="dxe-0"><path d="M253.2 116.8C252.8 116.4 252.4 116 252 115.7 252.2 114.4 252.4 113.1 252.4 111.7 252.4 102.4 246.7 94.2 238.3 90.8 237.2 83.5 232.7 77.3 226.1 74 223.9 63.7 214.8 56 203.9 56H203.1C202 48 196.5 41.1 189 38.2 187.1 27.7 178 20 167 20 159.7 20 153 23.5 148.8 29.2 141.2 29.1 134.2 32.8 130 38.9 128.5 38.6 127 38.4 125.4 38.4 118.4 38.4 111.9 41.6 107.7 47 106.5 46.8 105.4 46.7 104.2 46.7 92.7 46.7 83.2 55.3 81.8 66.4 72.7 68 65.5 75.1 63.6 84.1 53.3 86.2 45.6 95.3 45.6 106.2 45.6 109.9 46.5 113.5 48.2 116.7L48.1 116.8C47.2 118 46.8 119.5 47.1 120.9L78.1 275.9C78.1 276 78.1 276 78.2 276.1 78.3 276.3 78.3 276.6 78.4 276.8 78.4 276.9 78.5 277 78.5 277.1 78.6 277.3 78.7 277.5 78.8 277.6S78.9 277.8 79 277.9C79.1 278.1 79.2 278.2 79.4 278.3L79.7 278.6C79.8 278.7 80 278.8 80.1 278.9S80.3 279 80.4 279.1C80.6 279.2 80.7 279.3 80.9 279.4 81 279.5 81.1 279.5 81.2 279.6 81.4 279.7 81.6 279.7 81.8 279.8 81.9 279.8 82 279.9 82.1 279.9 82.4 280 82.7 280 83 280H217.2C219.6 280 221.6 278.3 222.1 276L254.2 121C254.5 119.5 254.1 118 253.2 116.8M220 143.7L238.7 125H240.7L239.7 129.9 220 149.5zM220 163.7L236 147.7 234.5 155.1 220 169.5zM220 183.7L230.8 172.9 229.3 180.3 220 189.6zM220 203.7L225.7 198 224.2 205.4 220 209.6zM220 223.7L220.5 223.2 220 225.8zM220 129.5V125H224.5zM68.3 93.7C71.1 93.7 73.3 91.5 73.3 88.7 73.3 81.8 78.9 76.2 85.8 76.2H86.4C87.9 76.3 89.3 75.8 90.4 74.7 91.4 73.6 91.9 72.2 91.8 70.7 91.7 70.2 91.7 69.7 91.7 69.3 91.7 62.4 97.3 56.8 104.2 56.8 105.6 56.8 107 57 108.3 57.5 110.6 58.3 113.2 57.3 114.4 55.1 116.6 51 120.8 48.5 125.5 48.5 127.2 48.5 128.9 48.8 130.4 49.5 131.6 50 133 50.1 134.2 49.6S136.4 48.1 137 46.9C139 42.3 143.5 39.3 148.5 39.3 149.1 39.3 149.8 39.4 150.5 39.5 152.6 39.9 154.8 38.8 155.8 36.9 158 32.7 162.2 30.1 166.9 30.1 173.7 30.1 179.2 35.4 179.4 42.3 179.5 44.6 181.1 46.6 183.4 47 189.1 48.2 193.3 53.4 193.3 59.3 193.3 59.9 193.2 60.6 193.1 61.3 192.8 63 193.4 64.8 194.8 66 196.1 67.1 198 67.5 199.7 66.9 201.1 66.4 202.5 66.2 203.8 66.2 210.4 66.2 215.9 71.4 216.3 78 216.4 80.1 217.8 81.8 219.7 82.5 224.8 84.2 228.3 89 228.3 94.3V94.7C228.3 97.1 230 99.1 232.3 99.6 238 100.8 242.2 106 242.2 111.9 242.2 113 242 114.1 241.8 115.1H58.9C58.7 114.6 58.5 114.2 58.2 113.8 56.6 111.6 55.7 109.1 55.7 106.3 55.7 99.3 61.3 93.7 68.3 93.7M177 212.5L154 235.5V229.6L177 206.6zM177 192.5L154 215.5V209.6L177 186.6zM177 172.5L154 195.5V189.6L177 166.6zM177 152.5L154 175.5V169.6L177 146.6zM177 132.5L154 155.5V149.6L177 126.6zM154 135.5V129.6L158.7 124.9H164.6zM154 249.7L177 226.7V232.6L154 255.6zM177 270H173.7L177 266.7zM93.7 270L111 252.7V258.5L99.5 270zM111 238.6L88 261.6V255.7L111 232.7zM111 218.5L88 241.5V235.6L111 212.6zM111 198.5L88 221.5V215.6L111 192.6zM111 178.5L88 201.5V195.6L111 172.6zM111 158.5L88 181.5V175.6L111 152.6zM111 138.5L88 161.5V155.6L111 132.6zM88 141.5V135.6L98.7 125H104.6zM78 213.7L76.1 204.5V204.4L59.6 125H78zM121 241V125H144V270H121zM154 269.7L177 246.7V252.6L159.5 270H154zM187 125H210V270H187zM100.3 89.2V87.2C100.4 86.5 100.5 85.8 100.7 85 101 83.5 101.7 82 102.6 80.6S104.7 77.8 106.2 76.7C106.9 76.2 107.7 75.6 108.5 75.2 108.9 75 109.3 74.8 109.8 74.6L110.4 74.3 110.7 74.2 110.9 74.1H111L111.3 74 112.3 73.7C112.5 73.7 112.6 73.6 112.9 73.6L113.7 73.5C114.8 73.3 115.7 73.3 116.6 73.3 118.4 73.4 120.2 73.7 121.8 74.4 123.4 75 124.8 75.9 126 76.9 126.6 77.4 127.1 77.9 127.6 78.4S128.5 79.5 128.8 80C129.1 80.6 129.4 81.1 129.7 81.6L130.3 83.1C130.4 83.6 130.5 84 130.6 84.5 130.7 84.9 130.7 85.3 130.7 85.7 130.8 86.4 130.6 87 130.6 87.3 130.6 87.7 130.5 87.9 130.5 87.9S130.3 87.8 130.1 87.5C129.8 87.3 129.4 86.9 128.9 86.5 128.7 86.3 128.4 86.1 128.1 85.9S127.5 85.5 127.1 85.3C126.4 84.9 125.7 84.5 124.9 84.1 124.1 83.8 123.2 83.5 122.3 83.3S120.5 83 119.6 82.9 117.8 82.9 116.9 83C116.7 83 116.5 83.1 116.2 83.1 116 83.1 115.9 83.2 115.7 83.2H115.3L115.1 83.3 114.3 83.5H114.2L114 83.6 113.7 83.7 113.1 84 111.9 84.6C111.1 85.1 110.4 85.5 109.7 86.1S108.3 87.3 107.8 88C107.2 88.7 106.7 89.4 106.2 90.2 105.8 91 105.4 91.7 105.1 92.5 105 92.9 104.8 93.2 104.7 93.6L104.4 94.5C104.2 95.1 104.1 95.7 104 96 103.9 96.4 103.9 96.6 103.9 96.6S103.7 96.5 103.5 96.2L103 95.7C102.8 95.5 102.6 95.3 102.4 95S102 94.4 101.8 94 101.4 93.2 101.2 92.7 100.9 91.7 100.8 91.1C100.4 90.5 100.4 89.9 100.3 89.2M143.8 60.3C143.8 60 143.7 59.7 143.8 59.4 143.8 59 143.9 58.6 143.9 58.2 144 57.8 144.1 57.3 144.2 56.8S144.5 55.8 144.8 55.3C145 54.8 145.3 54.3 145.7 53.7 146 53.2 146.5 52.6 146.9 52.1 147.4 51.6 147.9 51 148.5 50.6 149.7 49.6 151.1 48.8 152.7 48.1 154.3 47.5 156.1 47.1 157.9 47S161.6 47.2 163.4 47.8L163.8 47.9H163.9L164.1 48 164.6 48.2C164.8 48.3 164.9 48.3 165.1 48.4L165.8 48.8C166.8 49.3 167.5 49.8 168.3 50.3 169.7 51.4 171 52.8 171.9 54.2 172.8 55.7 173.5 57.2 173.8 58.6 174 59.3 174.1 60.1 174.2 60.8 174.2 61.5 174.3 62.2 174.2 62.8S174.1 64 173.9 64.6 173.6 65.7 173.4 66.2 173 67.1 172.8 67.5 172.4 68.2 172.2 68.5C171.8 69.1 171.4 69.5 171.2 69.8L170.8 70.2S170.7 70 170.7 69.6C170.6 69.2 170.5 68.7 170.3 68.1 170.2 67.8 170.1 67.5 170 67.1 169.9 66.8 169.7 66.4 169.6 66 169.3 65.3 168.9 64.5 168.5 63.8 168 63.1 167.5 62.3 166.9 61.6S165.6 60.3 165 59.7C164.3 59.1 163.5 58.6 162.8 58.2L162.2 57.9C162 57.8 161.9 57.8 161.7 57.7L161.5 57.6S161.4 57.6 161.3 57.5L161.1 57.4 160.6 57.2 160.4 57.1H160.3C159.5 56.9 158.6 56.6 157.8 56.5 156.9 56.4 156 56.3 155.1 56.4S153.3 56.6 152.4 56.8 150.7 57.3 149.8 57.6C149 58 148.2 58.3 147.6 58.8 147.3 59 147 59.2 146.6 59.4 146.3 59.6 146 59.8 145.8 60 145.3 60.3 144.9 60.8 144.6 61S144.2 61.4 144.2 61.4 144.2 61.2 144.1 60.8C143.9 60.8 143.8 60.6 143.8 60.3M173.7 86.9C173.9 86.4 174.2 85.9 174.6 85.3 174.9 84.8 175.4 84.2 175.8 83.7 176.3 83.2 176.8 82.6 177.4 82.2 178.6 81.2 180 80.4 181.6 79.7 183.2 79.1 185 78.7 186.8 78.6S190.5 78.8 192.3 79.4L192.7 79.5H192.8L193 79.6 193.5 79.8C193.7 79.9 193.8 79.9 194 80L194.7 80.4C195.7 80.9 196.4 81.4 197.2 81.9 198.6 83 199.9 84.4 200.8 85.8 201.7 87.3 202.4 88.8 202.7 90.2 202.9 90.9 203 91.7 203.1 92.4 203.1 93.1 203.2 93.8 203.1 94.4S203 95.6 202.8 96.2 202.5 97.3 202.3 97.8 201.9 98.7 201.7 99.1 201.3 99.8 201.1 100.1C200.7 100.7 200.3 101.1 200.1 101.4L199.7 101.8S199.6 101.6 199.6 101.2C199.5 100.8 199.4 100.3 199.2 99.7 199.1 99.4 199 99.1 198.9 98.7 198.8 98.4 198.6 98 198.5 97.6 198.2 96.9 197.8 96.1 197.4 95.4 196.9 94.7 196.4 93.9 195.8 93.2S194.5 91.9 193.9 91.3C193.2 90.7 192.4 90.2 191.7 89.8L191.1 89.5C190.9 89.4 190.8 89.4 190.6 89.3L190.4 89.2S190.3 89.2 190.2 89.1L190 89 189.5 88.8 189.3 88.7H189.2C188.4 88.5 187.5 88.2 186.7 88.1 185.8 88 184.9 87.9 184 88S182.2 88.2 181.3 88.4 179.6 88.9 178.7 89.2C177.9 89.6 177.1 89.9 176.5 90.4 176.2 90.6 175.9 90.8 175.5 91 175.2 91.2 174.9 91.4 174.7 91.6 174.2 91.9 173.8 92.4 173.5 92.6S173.1 93 173.1 93 173.1 92.8 173 92.4C173 92.2 173 92 172.9 91.7 172.9 91.4 172.8 91.1 172.9 90.8 172.9 90.4 173 90 173 89.6 173.1 89.2 173.2 88.7 173.3 88.2 173.3 87.9 173.5 87.4 173.7 86.9" fill="#000000" data-fill-palette-color="accent"></path></svg></g><g transform="matrix(1,0,0,1,150.0782861090557,8.678540039062497)"><svg width="106.982421875" viewBox="0.98 -38.38 106.97 38.99" height="38.9892578125" data-palette-color="#0080ff"><path d="M13.18 0.61L13.18 0.61Q5.03 0.61 5.03-7.86L5.03-7.86 5.03-19.31 2.27-19.31Q1.54-19.31 1.26-19.62 0.98-19.92 0.98-20.65L0.98-20.65 0.98-23.66Q0.98-24.39 1.26-24.69 1.54-25 2.27-25L2.27-25 5.03-25 5.03-28.93Q5.03-29.52 5.27-29.83L5.27-29.83Q6.3-31.18 8.28-32.74L8.28-32.74Q8.62-32.98 8.89-32.98L8.89-32.98Q9.18-32.98 9.47-32.74L9.47-32.74Q10.52-31.93 11.24-31.23 11.96-30.52 12.48-29.83L12.48-29.83Q12.72-29.52 12.72-28.93L12.72-28.93 12.72-25 17.04-25Q17.77-25 18.05-24.69 18.33-24.39 18.33-23.66L18.33-23.66 18.33-20.65Q18.33-19.92 18.05-19.62 17.77-19.31 17.04-19.31L17.04-19.31 12.72-19.31 12.72-9.2Q12.72-5.3 15.55-5.3L15.55-5.3Q15.99-5.3 16.36-5.38 16.72-5.47 16.99-5.57L16.99-5.57Q17.5-5.76 17.71-5.71 17.92-5.66 18.09-5.18L18.09-5.18 19.51-1.39Q19.73-0.78 19.21-0.51L19.21-0.51Q18.85-0.34 17.44 0.13 16.04 0.61 13.18 0.61ZM32.3 0.61L32.3 0.61Q23.61 0.61 23.61-9.91L23.61-9.91 23.58-22.31Q23.58-22.9 23.83-23.22L23.83-23.22Q24.85-24.56 26.83-26.12L26.83-26.12Q27.17-26.37 27.44-26.37L27.44-26.37Q27.76-26.37 28.05-26.12L28.05-26.12Q29.1-25.32 29.82-24.61 30.54-23.9 31.05-23.22L31.05-23.22Q31.3-22.9 31.3-22.31L31.3-22.31 31.3-10.6Q31.3-5.3 35.5-5.3L35.5-5.3Q37.57-5.3 38.82-6.75 40.06-8.2 40.06-10.69L40.06-10.69 40.06-22.31Q40.06-22.9 40.31-23.22L40.31-23.22Q41.33-24.56 43.31-26.12L43.31-26.12Q43.65-26.37 43.92-26.37L43.92-26.37Q44.24-26.37 44.53-26.12L44.53-26.12Q45.58-25.32 46.3-24.61 47.02-23.9 47.53-23.22L47.53-23.22Q47.78-22.9 47.78-22.31L47.78-22.31 47.78-1.12Q47.78-0.66 47.46-0.33 47.14 0 46.65 0L46.65 0 42.99 0Q42.6 0 42.29-0.11 41.99-0.22 41.72-0.54L41.72-0.54 40.21-2.49 40.04-2.49Q39.65-1.93 38.83-1.2 38.01-0.46 36.46 0.07 34.91 0.61 32.3 0.61ZM65.84 0.61L65.84 0.61Q62.69 0.61 60.54 0.15 58.39-0.32 56.93-1 55.46-1.68 54.37-2.37L54.37-2.37 54.37-34.33Q54.37-34.91 54.61-35.23L54.61-35.23Q55.63-36.57 57.61-38.13L57.61-38.13Q57.95-38.38 58.22-38.38L58.22-38.38Q58.54-38.38 58.83-38.13L58.83-38.13Q59.88-37.33 60.6-36.62 61.32-35.91 61.84-35.23L61.84-35.23Q62.08-34.91 62.08-34.33L62.08-34.33 62.08-22.49 62.18-22.49Q63.15-23.73 64.89-24.67 66.62-25.61 69.72-25.61L69.72-25.61Q73.19-25.61 75.43-24.01 77.68-22.41 78.78-19.62 79.88-16.82 79.88-13.21L79.88-13.21Q79.88-9.3 78.58-6.16 77.29-3.03 74.23-1.21 71.16 0.61 65.84 0.61ZM66.16-5.3L66.16-5.3Q68.99-5.3 70.48-7.19 71.97-9.08 71.97-12.6L71.97-12.6Q71.97-16.16 70.64-17.77 69.31-19.38 66.79-19.38L66.79-19.38Q64.77-19.38 63.7-18.55 62.64-17.72 62.08-16.46L62.08-16.46 62.08-6.37Q62.62-5.98 63.61-5.64 64.59-5.3 66.16-5.3ZM97.38 0.61L97.38 0.61Q93.25 0.61 90.2-0.72 87.15-2.05 85.47-4.86 83.78-7.67 83.78-12.11L83.78-12.11Q83.78-18.77 87.2-22.19 90.62-25.61 96.28-25.61L96.28-25.61Q99.97-25.61 102.52-24.29 105.07-22.97 106.4-20.65 107.73-18.33 107.73-15.36L107.73-15.36Q107.73-12.45 106.24-11.3 104.75-10.16 101.9-10.16L101.9-10.16 91.42-10.16Q91.62-7.64 93.27-6.32 94.91-5 97.75-5L97.75-5Q99.99-5 101.35-5.68 102.7-6.35 103.24-6.74L103.24-6.74Q103.7-7.08 104.29-7.06L104.29-7.06Q104.75-7.06 105.62-6.87 106.49-6.69 107.34-6.2L107.34-6.2Q107.95-5.88 107.95-5.32L107.95-5.32Q107.95-5 107.83-4.42L107.83-4.42Q107.76-4.08 107.59-3.43 107.41-2.78 107.15-2.22L107.15-2.22Q107-1.95 106.68-1.71L106.68-1.71Q106.19-1.37 105.11-0.81 104.02-0.24 102.14 0.18 100.26 0.61 97.38 0.61ZM91.37-15.16L91.37-15.16 99.33-15.16Q100.58-15.16 100.58-16.31L100.58-16.31Q100.58-18.04 99.49-19.23 98.41-20.41 96.23-20.41L96.23-20.41Q93.86-20.41 92.75-18.9 91.64-17.38 91.37-15.16Z" opacity="1" transform="matrix(1,0,0,1,0,0)" fill="#0080ff" class="undefined-tk-1"></path></svg></g></svg></g></svg></g></svg></g></svg></g></svg></g><defs></defs></svg><rect width="257.0607079840557" height="63.084619140624994" fill="none" stroke="none" visibility="hidden"></rect></g></svg></g></svg>